<mxfile host="65bd71144e">
    <diagram id="9pTbmhpvUb1z8jFgpCUr" name="Page-1">
        <mxGraphModel dx="381" dy="719" grid="1" gridSize="10" guides="1" tooltips="1" connect="1" arrows="1" fold="1" page="1" pageScale="1" pageWidth="700" pageHeight="1400" math="0" shadow="0">
            <root>
                <mxCell id="0"/>
                <mxCell id="1" parent="0"/>
                <mxCell id="96" value="Pre-Processing" style="swimlane;horizontal=0;whiteSpace=wrap;html=1;startSize=40;fillColor=#dae8fc;strokeColor=#6c8ebf;swimlaneFillColor=#f5f5f5;collapsible=0;" parent="1" vertex="1">
                    <mxGeometry x="720" width="560" height="110" as="geometry">
                        <mxRectangle x="700" width="50" height="130" as="alternateBounds"/>
                    </mxGeometry>
                </mxCell>
                <mxCell id="101" style="edgeStyle=none;html=1;exitX=0;exitY=0.5;exitDx=0;exitDy=0;entryX=1;entryY=0.25;entryDx=0;entryDy=0;" parent="96" source="99" target="133" edge="1">
                    <mxGeometry relative="1" as="geometry">
                        <mxPoint x="200" y="70" as="targetPoint"/>
                    </mxGeometry>
                </mxCell>
                <mxCell id="99" value="1" style="rhombus;whiteSpace=wrap;html=1;fillColor=#dae8fc;strokeColor=#6c8ebf;" parent="96" vertex="1">
                    <mxGeometry x="318" y="17.5" width="40" height="40" as="geometry"/>
                </mxCell>
                <mxCell id="103" style="edgeStyle=none;html=1;exitX=0;exitY=0.5;exitDx=0;exitDy=0;entryX=1;entryY=0.5;entryDx=0;entryDy=0;" parent="96" source="102" target="99" edge="1">
                    <mxGeometry relative="1" as="geometry">
                        <mxPoint x="540" y="40.5" as="sourcePoint"/>
                        <mxPoint x="440" y="50" as="targetPoint"/>
                    </mxGeometry>
                </mxCell>
                <mxCell id="102" value="data sources" style="rounded=0;whiteSpace=wrap;html=1;fillColor=#dae8fc;strokeColor=#6c8ebf;" parent="96" vertex="1">
                    <mxGeometry x="428" y="20" width="120" height="35" as="geometry"/>
                </mxCell>
                <mxCell id="133" value="numerical information &lt;br&gt;in standard formats&lt;br&gt;(e.g. R vectors)&lt;br&gt;(e.g. CSV files)" style="rounded=0;whiteSpace=wrap;html=1;fillColor=#dae8fc;strokeColor=#6c8ebf;" vertex="1" parent="96">
                    <mxGeometry x="58" y="17.5" width="190" height="78" as="geometry"/>
                </mxCell>
                <mxCell id="91" value="Post-Processing" style="swimlane;horizontal=0;whiteSpace=wrap;html=1;startSize=40;fillColor=#dae8fc;strokeColor=#6c8ebf;swimlaneFillColor=#f5f5f5;collapsible=0;expand=1;" parent="1" vertex="1">
                    <mxGeometry x="720" y="360" width="560" height="90" as="geometry">
                        <mxRectangle x="700" y="490" width="50" height="130" as="alternateBounds"/>
                    </mxGeometry>
                </mxCell>
                <mxCell id="95" style="edgeStyle=none;html=1;exitX=0;exitY=0.5;exitDx=0;exitDy=0;entryX=1;entryY=0.5;entryDx=0;entryDy=0;" parent="91" source="92" target="94" edge="1">
                    <mxGeometry relative="1" as="geometry"/>
                </mxCell>
                <mxCell id="92" value="4" style="rhombus;whiteSpace=wrap;html=1;fillColor=#dae8fc;strokeColor=#6c8ebf;" parent="91" vertex="1">
                    <mxGeometry x="498" y="25" width="40" height="40" as="geometry"/>
                </mxCell>
                <mxCell id="94" value="results&lt;br&gt;(e.g. ggplot2 graphics, CSV files with forecasts, &lt;br&gt;estimates of reproduction numbers)" style="rounded=0;whiteSpace=wrap;html=1;fillColor=#dae8fc;strokeColor=#6c8ebf;" parent="91" vertex="1">
                    <mxGeometry x="98" y="15" width="310" height="60" as="geometry"/>
                </mxCell>
                <mxCell id="78" value="Modelling Language" style="swimlane;horizontal=0;whiteSpace=wrap;html=1;startSize=40;fillColor=#f8cecc;strokeColor=#b85450;swimlaneFillColor=#f5f5f5;fillStyle=auto;gradientColor=none;collapsible=0;" parent="1" vertex="1">
                    <mxGeometry x="720" y="110" width="560" height="90" as="geometry">
                        <mxRectangle x="700" y="150" width="50" height="170" as="alternateBounds"/>
                    </mxGeometry>
                </mxCell>
                <mxCell id="187" style="edgeStyle=none;html=1;exitX=0;exitY=0.5;exitDx=0;exitDy=0;entryX=1;entryY=0.5;entryDx=0;entryDy=0;fontFamily=Helvetica;fontSize=12;fontColor=default;" edge="1" parent="78" source="4" target="168">
                    <mxGeometry relative="1" as="geometry"/>
                </mxCell>
                <mxCell id="4" value="model library" style="rounded=0;whiteSpace=wrap;html=1;fillColor=#f8cecc;strokeColor=#b85450;" parent="78" vertex="1">
                    <mxGeometry x="428" y="15" width="120" height="60" as="geometry"/>
                </mxCell>
                <mxCell id="38" value="2a" style="rhombus;whiteSpace=wrap;html=1;fillColor=#f8cecc;strokeColor=#b85450;" parent="78" vertex="1">
                    <mxGeometry x="300" y="25" width="40" height="40" as="geometry"/>
                </mxCell>
                <mxCell id="186" style="edgeStyle=none;html=1;exitX=1;exitY=0.5;exitDx=0;exitDy=0;entryX=0;entryY=0.5;entryDx=0;entryDy=0;fontFamily=Helvetica;fontSize=12;fontColor=default;" edge="1" parent="78" source="167" target="38">
                    <mxGeometry relative="1" as="geometry"/>
                </mxCell>
                <mxCell id="167" value="engine-agnostic model specification" style="rounded=0;whiteSpace=wrap;html=1;fillColor=#f8cecc;strokeColor=#b85450;" vertex="1" parent="78">
                    <mxGeometry x="148" y="15" width="120" height="60" as="geometry"/>
                </mxCell>
                <mxCell id="168" value="2b" style="rhombus;whiteSpace=wrap;html=1;fillColor=#f8cecc;strokeColor=#b85450;" vertex="1" parent="78">
                    <mxGeometry x="360" y="25" width="40" height="40" as="geometry"/>
                </mxCell>
                <mxCell id="79" value="Simulation and/or&lt;br&gt;Calibration Engine" style="swimlane;horizontal=0;whiteSpace=wrap;html=1;startSize=40;fillColor=#f8cecc;strokeColor=#b85450;swimlaneFillColor=#f5f5f5;collapsible=0;" parent="1" vertex="1">
                    <mxGeometry x="720" y="200" width="560" height="160" as="geometry">
                        <mxRectangle x="700" y="360" width="40" height="70" as="alternateBounds"/>
                    </mxGeometry>
                </mxCell>
                <mxCell id="87" value="model outputs" style="rounded=0;whiteSpace=wrap;html=1;fillColor=#f8cecc;strokeColor=#b85450;" parent="79" vertex="1">
                    <mxGeometry x="428" y="80" width="120" height="60" as="geometry"/>
                </mxCell>
                <mxCell id="190" style="edgeStyle=none;html=1;exitX=1;exitY=0.5;exitDx=0;exitDy=0;entryX=0.75;entryY=0;entryDx=0;entryDy=0;fontFamily=Helvetica;fontSize=12;fontColor=default;" edge="1" parent="79" source="88" target="87">
                    <mxGeometry relative="1" as="geometry">
                        <Array as="points">
                            <mxPoint x="518" y="50"/>
                        </Array>
                    </mxGeometry>
                </mxCell>
                <mxCell id="88" value="3" style="rhombus;whiteSpace=wrap;html=1;fillColor=#f8cecc;strokeColor=#b85450;" parent="79" vertex="1">
                    <mxGeometry x="448" y="30" width="40" height="40" as="geometry"/>
                </mxCell>
                <mxCell id="110" style="edgeStyle=none;html=1;exitX=1;exitY=0.5;exitDx=0;exitDy=0;entryX=0;entryY=0.5;entryDx=0;entryDy=0;" parent="79" source="107" target="88" edge="1">
                    <mxGeometry relative="1" as="geometry"/>
                </mxCell>
                <mxCell id="174" style="edgeStyle=none;html=1;exitX=0.15;exitY=1.017;exitDx=0;exitDy=0;entryX=0;entryY=0.5;entryDx=0;entryDy=0;fontFamily=Helvetica;fontSize=12;fontColor=default;exitPerimeter=0;" edge="1" parent="79" source="107" target="145">
                    <mxGeometry relative="1" as="geometry">
                        <Array as="points">
                            <mxPoint x="306" y="110"/>
                        </Array>
                    </mxGeometry>
                </mxCell>
                <mxCell id="107" value="model object" style="rounded=0;whiteSpace=wrap;html=1;fillColor=#f8cecc;strokeColor=#b85450;strokeWidth=1;" parent="79" vertex="1">
                    <mxGeometry x="288" y="20" width="120" height="60" as="geometry"/>
                </mxCell>
                <mxCell id="164" style="edgeStyle=none;html=1;exitX=0;exitY=0.5;exitDx=0;exitDy=0;entryX=0.5;entryY=1;entryDx=0;entryDy=0;fontFamily=Helvetica;fontSize=12;fontColor=default;" edge="1" parent="79" source="134" target="155">
                    <mxGeometry relative="1" as="geometry">
                        <Array as="points">
                            <mxPoint x="118" y="110"/>
                        </Array>
                    </mxGeometry>
                </mxCell>
                <mxCell id="134" value="engine-specific &lt;br&gt;model specification" style="rounded=0;whiteSpace=wrap;html=1;fillColor=#f8cecc;strokeColor=#b85450;" vertex="1" parent="79">
                    <mxGeometry x="148" y="80" width="120" height="60" as="geometry"/>
                </mxCell>
                <mxCell id="175" style="edgeStyle=none;html=1;exitX=1;exitY=0.5;exitDx=0;exitDy=0;entryX=0.85;entryY=1;entryDx=0;entryDy=0;fontFamily=Helvetica;fontSize=12;fontColor=default;entryPerimeter=0;" edge="1" parent="79" source="145" target="107">
                    <mxGeometry relative="1" as="geometry">
                        <Array as="points">
                            <mxPoint x="390" y="110"/>
                        </Array>
                    </mxGeometry>
                </mxCell>
                <mxCell id="145" value="2d" style="rhombus;whiteSpace=wrap;html=1;fillColor=#f8cecc;strokeColor=#b85450;" vertex="1" parent="79">
                    <mxGeometry x="328" y="90" width="40" height="40" as="geometry"/>
                </mxCell>
                <mxCell id="162" style="edgeStyle=none;html=1;exitX=1;exitY=0.5;exitDx=0;exitDy=0;entryX=0;entryY=0.5;entryDx=0;entryDy=0;fontFamily=Helvetica;fontSize=12;fontColor=default;" edge="1" parent="79" source="155" target="107">
                    <mxGeometry relative="1" as="geometry"/>
                </mxCell>
                <mxCell id="155" value="2c" style="rhombus;whiteSpace=wrap;html=1;fillColor=#f8cecc;strokeColor=#b85450;" vertex="1" parent="79">
                    <mxGeometry x="98" y="30" width="40" height="40" as="geometry"/>
                </mxCell>
                <mxCell id="205" style="edgeStyle=none;html=1;exitX=0.5;exitY=1;exitDx=0;exitDy=0;entryX=0.5;entryY=0;entryDx=0;entryDy=0;fontFamily=Helvetica;fontSize=12;fontColor=default;" edge="1" parent="79" source="204" target="134">
                    <mxGeometry relative="1" as="geometry"/>
                </mxCell>
                <mxCell id="204" value="" style="rhombus;whiteSpace=wrap;html=1;fillColor=#f8cecc;strokeColor=#b85450;" vertex="1" parent="79">
                    <mxGeometry x="188" y="10" width="40" height="40" as="geometry"/>
                </mxCell>
                <mxCell id="157" style="edgeStyle=none;html=1;entryX=0.5;entryY=0;entryDx=0;entryDy=0;fontFamily=Helvetica;fontSize=12;fontColor=default;exitX=0.322;exitY=1.006;exitDx=0;exitDy=0;exitPerimeter=0;" edge="1" parent="1" source="133" target="155">
                    <mxGeometry relative="1" as="geometry">
                        <mxPoint x="840" y="110" as="sourcePoint"/>
                    </mxGeometry>
                </mxCell>
                <mxCell id="176" style="edgeStyle=none;html=1;exitX=0.146;exitY=1.006;exitDx=0;exitDy=0;entryX=0.5;entryY=1;entryDx=0;entryDy=0;fontFamily=Helvetica;fontSize=12;fontColor=default;exitPerimeter=0;" edge="1" parent="1" source="133" target="145">
                    <mxGeometry relative="1" as="geometry">
                        <Array as="points">
                            <mxPoint x="806" y="350"/>
                            <mxPoint x="1068" y="350"/>
                        </Array>
                    </mxGeometry>
                </mxCell>
                <mxCell id="184" style="edgeStyle=none;html=1;exitX=1;exitY=0.75;exitDx=0;exitDy=0;entryX=0.5;entryY=0;entryDx=0;entryDy=0;fontFamily=Helvetica;fontSize=12;fontColor=default;" edge="1" parent="1" source="133" target="38">
                    <mxGeometry relative="1" as="geometry">
                        <Array as="points">
                            <mxPoint x="1040" y="76"/>
                        </Array>
                    </mxGeometry>
                </mxCell>
                <mxCell id="185" style="edgeStyle=none;html=1;entryX=0.5;entryY=0;entryDx=0;entryDy=0;fontFamily=Helvetica;fontSize=12;fontColor=default;exitX=0.999;exitY=0.682;exitDx=0;exitDy=0;exitPerimeter=0;" edge="1" parent="1" source="133" target="168">
                    <mxGeometry relative="1" as="geometry">
                        <mxPoint x="970" y="70" as="sourcePoint"/>
                        <Array as="points">
                            <mxPoint x="1100" y="70"/>
                        </Array>
                    </mxGeometry>
                </mxCell>
                <mxCell id="188" style="edgeStyle=none;html=1;exitX=0.5;exitY=1;exitDx=0;exitDy=0;entryX=0.25;entryY=0;entryDx=0;entryDy=0;fontFamily=Helvetica;fontSize=12;fontColor=default;" edge="1" parent="1" source="38" target="107">
                    <mxGeometry relative="1" as="geometry"/>
                </mxCell>
                <mxCell id="189" style="edgeStyle=none;html=1;exitX=0.5;exitY=1;exitDx=0;exitDy=0;entryX=0.75;entryY=0;entryDx=0;entryDy=0;fontFamily=Helvetica;fontSize=12;fontColor=default;" edge="1" parent="1" source="168" target="107">
                    <mxGeometry relative="1" as="geometry"/>
                </mxCell>
                <mxCell id="196" value="Outside macpan2" style="rounded=0;whiteSpace=wrap;html=1;strokeColor=#6c8ebf;fontFamily=Helvetica;fontSize=10;fillColor=#dae8fc;horizontal=0;direction=west;verticalAlign=middle;spacing=2;fontStyle=1" vertex="1" parent="1">
                    <mxGeometry x="700" y="360" width="20" height="90" as="geometry"/>
                </mxCell>
                <mxCell id="197" value="Outside macpan2" style="rounded=0;whiteSpace=wrap;html=1;strokeColor=#6c8ebf;fontFamily=Helvetica;fontSize=10;fillColor=#dae8fc;horizontal=0;direction=west;verticalAlign=middle;spacing=2;fontStyle=1" vertex="1" parent="1">
                    <mxGeometry x="700" width="20" height="110" as="geometry"/>
                </mxCell>
                <mxCell id="93" style="edgeStyle=none;html=1;exitX=0.75;exitY=1;exitDx=0;exitDy=0;entryX=0.5;entryY=0;entryDx=0;entryDy=0;" parent="1" source="87" target="92" edge="1">
                    <mxGeometry relative="1" as="geometry"/>
                </mxCell>
                <mxCell id="195" value="Inside macpan2" style="rounded=0;whiteSpace=wrap;html=1;strokeColor=#b85450;fontFamily=Helvetica;fontSize=10;fillColor=#f8cecc;horizontal=0;direction=west;verticalAlign=middle;spacing=2;fontStyle=1" vertex="1" parent="1">
                    <mxGeometry x="700" y="110" width="20" height="250" as="geometry"/>
                </mxCell>
                <mxCell id="202" value="" style="group" vertex="1" connectable="0" parent="1">
                    <mxGeometry x="700" y="450" width="580" height="50" as="geometry"/>
                </mxCell>
                <mxCell id="121" value="&lt;h1&gt;&lt;font style=&quot;font-size: 16px;&quot;&gt;Legend&lt;/font&gt;&lt;/h1&gt;" style="text;html=1;strokeColor=#666666;fillColor=#f5f5f5;spacing=5;spacingTop=-20;whiteSpace=wrap;overflow=hidden;rounded=0;fontColor=#333333;" parent="202" vertex="1">
                    <mxGeometry width="580" height="50" as="geometry"/>
                </mxCell>
                <mxCell id="117" value="" style="rhombus;whiteSpace=wrap;html=1;" parent="202" vertex="1">
                    <mxGeometry x="236" y="5" width="40" height="40" as="geometry"/>
                </mxCell>
                <mxCell id="118" value="Family of functions:" style="text;html=1;strokeColor=none;fillColor=none;align=left;verticalAlign=middle;whiteSpace=wrap;rounded=0;" parent="202" vertex="1">
                    <mxGeometry x="116" y="10" width="130" height="30" as="geometry"/>
                </mxCell>
                <mxCell id="119" value="" style="rounded=0;whiteSpace=wrap;html=1;" parent="202" vertex="1">
                    <mxGeometry x="450" y="10" width="60" height="30" as="geometry"/>
                </mxCell>
                <mxCell id="120" value="Family of objects:" style="text;html=1;strokeColor=none;fillColor=none;align=left;verticalAlign=middle;whiteSpace=wrap;rounded=0;" parent="202" vertex="1">
                    <mxGeometry x="340" y="10" width="157" height="30" as="geometry"/>
                </mxCell>
                <mxCell id="203" style="edgeStyle=none;html=1;exitX=0.5;exitY=1;exitDx=0;exitDy=0;entryX=0.5;entryY=0;entryDx=0;entryDy=0;fontFamily=Helvetica;fontSize=12;fontColor=default;" edge="1" parent="1" source="167" target="204">
                    <mxGeometry relative="1" as="geometry"/>
                </mxCell>
            </root>
        </mxGraphModel>
    </diagram>
</mxfile>